<svg xmlns="http://www.w3.org/2000/svg" viewBox="0 0 512 512" role="img" aria-labelledby="title">
  <title>Adobe Substance Painter</title>
  <rect width="512" height="512" rx="82" fill="#162700"/>
  <path d="M112 95h123.2c33.333 0 59.2 8.267 77.6 24.8 18.667 16.267 28 39.333 28 69.2 0 32.8-10.267 57.2-30.8 73.2-20.267 16-48.533 24-84.8 24H189.6V425H112V95Zm77.6 132.8h26.4c18.4 0 31.467-2.933 39.2-8.8 7.733-6.133 11.6-15.6 11.6-28.4 0-11.467-3.333-20.667-10-27.6-6.4-6.933-18.133-10.4-35.2-10.4h-32V227.8Z" fill="#a4f53e"/>
  <path d="M326.4 124.6 392 118v41.2h36.8v58.4H392v112.8c0 13.6 1.2 22.4 3.6 26.4 3.467 6.133 9.467 9.2 18 9.2 7.733 0 18.667-2.267 32.8-6.8l4.8 55.2c-18.667 8-36.133 12-52.4 12-18.933 0-32.933-2.4-42-7.2-8.8-4.8-15.333-12.133-19.6-22-4.267-10.133-6.4-26.4-6.4-48.8V217.6h-24.8v-58.4h24.8V124.6Z" fill="#a4f53e"/>
</svg>
